<?xml version="1.0" encoding="UTF-8" standalone="no"?>
<!-- Created with Inkscape (http://www.inkscape.org/) -->

<svg
   xmlns:dc="http://purl.org/dc/elements/1.1/"
   xmlns:cc="http://creativecommons.org/ns#"
   xmlns:rdf="http://www.w3.org/1999/02/22-rdf-syntax-ns#"
   xmlns:svg="http://www.w3.org/2000/svg"
   xmlns="http://www.w3.org/2000/svg"
   xmlns:xlink="http://www.w3.org/1999/xlink"
   xmlns:sodipodi="http://sodipodi.sourceforge.net/DTD/sodipodi-0.dtd"
   xmlns:inkscape="http://www.inkscape.org/namespaces/inkscape"
   width="180"
   height="120"
   viewBox="0 0 180 120"
   version="1.1"
   id="svg839"
   inkscape:version="0.92pre1_64bit r15077"
   sodipodi:docname="Advertisement.svg"
   inkscape:export-filename="C:\Projects\Cards\Screenshots\Advertisement.png"
   inkscape:export-xdpi="96"
   inkscape:export-ydpi="96">
  <defs
     id="defs833">
    <linearGradient
       inkscape:collect="always"
       id="linearGradient914">
      <stop
         style="stop-color:#e1e1e1;stop-opacity:1"
         offset="0"
         id="stop910" />
      <stop
         style="stop-color:#fcfcfc;stop-opacity:1"
         offset="1"
         id="stop912" />
    </linearGradient>
    <linearGradient
       inkscape:collect="always"
       id="linearGradient900">
      <stop
         style="stop-color:#e1e1e1;stop-opacity:1"
         offset="0"
         id="stop896" />
      <stop
         style="stop-color:#fcfcfc;stop-opacity:1"
         offset="1"
         id="stop898" />
    </linearGradient>
    <linearGradient
       inkscape:collect="always"
       id="linearGradient892">
      <stop
         style="stop-color:#e1e1e1;stop-opacity:1"
         offset="0"
         id="stop888" />
      <stop
         style="stop-color:#fcfcfc;stop-opacity:1"
         offset="1"
         id="stop890" />
    </linearGradient>
    <linearGradient
       inkscape:collect="always"
       id="linearGradient876">
      <stop
         style="stop-color:#e1e1e1;stop-opacity:1"
         offset="0"
         id="stop872" />
      <stop
         style="stop-color:#fcfcfc;stop-opacity:1"
         offset="1"
         id="stop874" />
    </linearGradient>
    <linearGradient
       inkscape:collect="always"
       id="linearGradient913">
      <stop
         style="stop-color:#008844;stop-opacity:1"
         offset="0"
         id="stop909" />
      <stop
         style="stop-color:#006633;stop-opacity:1"
         offset="1"
         id="stop911" />
    </linearGradient>
    <radialGradient
       inkscape:collect="always"
       xlink:href="#linearGradient913"
       id="radialGradient915"
       cx="16.4043"
       cy="16.7903"
       fx="16.4043"
       fy="16.7903"
       r="16.9336"
       gradientUnits="userSpaceOnUse"
       gradientTransform="matrix(7.49613,7.66331,-7.67806,7.49118,91.9645,-192.571)" />
    <linearGradient
       inkscape:collect="always"
       xlink:href="#linearGradient876"
       id="linearGradient878"
       x1="25.5369"
       y1="1.44516"
       x2="26.0123"
       y2="22.5059"
       gradientUnits="userSpaceOnUse"
       gradientTransform="matrix(3.67771,0,0,3.67771,25.6795,-9.23833)" />
    <linearGradient
       inkscape:collect="always"
       xlink:href="#linearGradient892"
       id="linearGradient894"
       x1="14.0432"
       y1="4.51666"
       x2="13.7651"
       y2="25.6102"
       gradientUnits="userSpaceOnUse"
       gradientTransform="matrix(3.6777,0,0,3.6777,26.8937,-4.6388)" />
    <linearGradient
       inkscape:collect="always"
       xlink:href="#linearGradient900"
       id="linearGradient902"
       x1="8.14387"
       y1="6.45778"
       x2="8.06064"
       y2="27.5913"
       gradientUnits="userSpaceOnUse"
       gradientTransform="matrix(3.6777,0,0,3.6777,27.2904,0.101636)" />
    <linearGradient
       inkscape:collect="always"
       xlink:href="#linearGradient914"
       id="linearGradient916"
       x1="1.19056"
       y1="7.77007"
       x2="1.51308"
       y2="28.7"
       gradientUnits="userSpaceOnUse"
       gradientTransform="matrix(3.67771,0,0,3.67771,26.8583,4.8391)" />
    <filter
       inkscape:collect="always"
       style="color-interpolation-filters:sRGB"
       id="filter1208"
       x="-0.0709838"
       width="1.14197"
       y="-0.0519599"
       height="1.10392">
      <feGaussianBlur
         inkscape:collect="always"
         stdDeviation="1.82864"
         id="feGaussianBlur1210" />
    </filter>
    <filter
       inkscape:collect="always"
       style="color-interpolation-filters:sRGB"
       id="filter1216"
       x="-0.0709838"
       width="1.14197"
       y="-0.0519599"
       height="1.10392">
      <feGaussianBlur
         inkscape:collect="always"
         stdDeviation="1.82864"
         id="feGaussianBlur1218" />
    </filter>
    <filter
       inkscape:collect="always"
       style="color-interpolation-filters:sRGB"
       id="filter1224"
       x="-0.0672457"
       width="1.13449"
       y="-0.0541638"
       height="1.10833">
      <feGaussianBlur
         inkscape:collect="always"
         stdDeviation="2.04272"
         id="feGaussianBlur1226" />
    </filter>
    <filter
       inkscape:collect="always"
       style="color-interpolation-filters:sRGB"
       id="filter1232"
       x="-0.0672457"
       width="1.13449"
       y="-0.0541638"
       height="1.10833">
      <feGaussianBlur
         inkscape:collect="always"
         stdDeviation="2.04272"
         id="feGaussianBlur1234" />
    </filter>
  </defs>
  <sodipodi:namedview
     id="base"
     pagecolor="#ffffff"
     bordercolor="#666666"
     borderopacity="1.0"
     inkscape:pageopacity="0.0"
     inkscape:pageshadow="2"
     inkscape:zoom="3.5957"
     inkscape:cx="79.0662"
     inkscape:cy="19.0358"
     inkscape:document-units="mm"
     inkscape:current-layer="svg839"
     showgrid="false"
     inkscape:snap-bbox="true"
     inkscape:bbox-paths="true"
     inkscape:bbox-nodes="true"
     inkscape:snap-bbox-edge-midpoints="true"
     inkscape:snap-bbox-midpoints="true"
     inkscape:object-paths="true"
     inkscape:snap-intersection-paths="true"
     inkscape:snap-smooth-nodes="true"
     inkscape:snap-midpoints="true"
     inkscape:snap-page="false"
     inkscape:snap-center="true"
     inkscape:snap-object-midpoints="true"
     inkscape:snap-global="false"
     fit-margin-top="0"
     fit-margin-left="0"
     fit-margin-right="0"
     fit-margin-bottom="0"
     units="px"
     inkscape:window-width="2560"
     inkscape:window-height="1393"
     inkscape:window-x="-4"
     inkscape:window-y="-4"
     inkscape:window-maximized="1" />
  <metadata
     id="metadata836">
    <rdf:RDF>
      <cc:Work
         rdf:about="">
        <dc:format>image/svg+xml</dc:format>
        <dc:type
           rdf:resource="http://purl.org/dc/dcmitype/StillImage" />
        <dc:title></dc:title>
      </cc:Work>
    </rdf:RDF>
  </metadata>
  <path
     style="opacity:1;fill:url(#radialGradient915);fill-opacity:1;fill-rule:nonzero;stroke:none;stroke-width:1.992864;stroke-linecap:round;stroke-linejoin:round;stroke-miterlimit:4;stroke-dasharray:none;stroke-opacity:1"
     d="M 0 0 L 0 120 L 180 120 L 180 0 L 0 0 z "
     id="rect907" />
  <rect
     transform="matrix(0.939922,-0.251851,0.251851,0.939922,27.4851,-1.66481)"
     ry="3.77954"
     rx="3.77954"
     y="28.6353"
     x="1.06958"
     height="80.5498"
     width="55.648"
     id="rect1150"
     style="opacity:0.5;fill:#000000;fill-opacity:1;fill-rule:nonzero;stroke:none;stroke-width:0.5;stroke-linecap:round;stroke-linejoin:round;stroke-miterlimit:4;stroke-dasharray:none;stroke-opacity:1;filter:url(#filter1224)" />
  <rect
     style="opacity:1;fill:url(#linearGradient916);fill-opacity:1;fill-rule:nonzero;stroke:#9aa4ac;stroke-width:0.48654;stroke-linecap:round;stroke-linejoin:round;stroke-miterlimit:4;stroke-dasharray:none;stroke-opacity:1"
     id="rect861"
     width="54.1499"
     height="78.3814"
     x="27.8975"
     y="32.703"
     rx="3.67778"
     ry="3.67778"
     transform="rotate(-15)" />
  <path
     inkscape:connector-curvature="0"
     id="J"
     style="font-style:normal;font-variant:normal;font-weight:normal;font-stretch:normal;font-size:7.055659px;line-height:6.614675px;font-family:CardFont;-inkscape-font-specification:CardFont;letter-spacing:0px;word-spacing:0px;fill:#000000;fill-opacity:1;stroke:none;stroke-width:0.42718px;stroke-linecap:butt;stroke-linejoin:miter;stroke-opacity:1"
     d="m 44.9165,26.4697 -0.9581,0.2538 1.4593,5.4468 c 0.3604,1.4144 0.037,2.8012 -1.7679,3.3042 -2.0253,0.5697 -2.934,-0.865 -3.423,-2.7151 l 1.2649,-0.3385 c 0.3127,1.2311 0.7342,2.0212 1.8098,1.7557 0.9718,-0.2386 1.0754,-0.8716 0.85,-1.6665 l -1.4593,-5.4468 -1.0012,0.2683 -0.3492,-1.3096 3.2239,-0.8634 z"
     sodipodi:nodetypes="cccsccscccccc" />
  <path
     style="stroke-width:0.118018"
     inkscape:connector-curvature="0"
     d="m 44.7381,37.5316 c -0.6472,1.7759 -1.5203,3.0289 -1.243,4.1075 0.2757,1.0792 1.9248,0.9999 2.0319,-0.1029 0,-0.085 0.1361,1.0453 0,1.6317 l 1.3721,-0.3677 c -0.4225,-0.4314 -0.8763,-1.4727 -0.8278,-1.4042 0.6403,0.9 2.1384,0.2949 1.8106,-0.9282 -0.3274,-1.2231 -1.6823,-1.7216 -3.1291,-2.9362 z"
     id="path3166"
     sodipodi:nodetypes="czsccszc" />
  <rect
     transform="matrix(0.969376,-0.084809,0.084809,0.969376,28.0314,-1.69495)"
     style="opacity:0.5;fill:#000000;fill-opacity:1;fill-rule:nonzero;stroke:none;stroke-width:0.5;stroke-linecap:round;stroke-linejoin:round;stroke-miterlimit:4;stroke-dasharray:none;stroke-opacity:1;filter:url(#filter1216)"
     id="rect1152"
     width="55.648"
     height="80.5498"
     x="26.4446"
     y="24.0411"
     rx="3.77954"
     ry="3.77954" />
  <rect
     ry="3.67778"
     rx="3.67778"
     y="23.4957"
     x="53.0215"
     height="78.3813"
     width="54.1498"
     id="rect859"
     style="opacity:1;fill:url(#linearGradient902);fill-opacity:1;fill-rule:nonzero;stroke:#9aa4ac;stroke-width:0.486539;stroke-linecap:round;stroke-linejoin:round;stroke-miterlimit:4;stroke-dasharray:none;stroke-opacity:1"
     transform="rotate(-4.99996)" />
  <path
     inkscape:connector-curvature="0"
     id="Q"
     style="font-style:normal;font-variant:normal;font-weight:normal;font-stretch:normal;font-size:7.055659px;line-height:6.614675px;font-family:CardFont;-inkscape-font-specification:CardFont;letter-spacing:0px;word-spacing:0px;fill:#cc0000;fill-opacity:1;stroke:none;stroke-width:0.42718px;stroke-linecap:butt;stroke-linejoin:miter;stroke-opacity:1"
     d="m 65.6176,30.6572 c -0.9386,0.084 -1.2513,0.037 -1.6553,-0.2317 -0.4389,0.432 -0.9636,0.6666 -1.5161,0.7157 -1.5101,0.136 -2.5177,-1.0654 -2.6019,-2.0364 l -0.074,-0.84 -0.624,0.055 -0.099,-1.1299 0.6245,-0.058 -0.2942,-3.3702 c -0.1066,-1.3871 0.7971,-2.3469 2.2083,-2.469 1.4112,-0.1214 2.4757,0.6877 2.6035,2.0477 l 0.4675,5.3452 c 0.037,0.2575 0,0.5149 -0.091,0.7742 0.4639,0.1288 0.6126,0.081 0.9541,0.055 z m -2.5984,-7.2169 c -0.055,-0.6347 -0.6579,-1.011 -1.331,-0.9583 -0.6731,0.052 -1.2017,0.5219 -1.1554,1.176 l 0.2942,3.3702 c 0.2279,0 0.4457,0.041 0.6499,0.1141 0.2133,0.074 0.4148,0.1656 0.6079,0.2795 0.191,0.1103 0.3754,0.2391 0.5482,0.3866 0.3089,0.2389 0.5575,0.4765 0.8306,0.7279 z m 0,6.2334 C 62.5436,29.1307 61.955,28.6661 61.457,28.3664 61.2216,28.2192 61.1222,28.2045 60.9446,28.1823 l 0.074,0.8168 c 0.077,0.6863 0.6985,0.9982 1.3412,0.9464 0.2391,0 0.4543,-0.1176 0.6623,-0.2723 z"
     sodipodi:nodetypes="ccscccccczcscccczcccccccccccscc" />
  <path
     style="fill:#cc0000;fill-opacity:1;stroke-width:0.118018"
     inkscape:connector-curvature="0"
     d="m 62.7626,38.7599 c -0.6935,-0.9508 -1.6384,-1.8511 -2.5098,-2.6146 0.7254,-0.903 1.4994,-1.954 2.0178,-3.0107 0.6952,0.9503 1.6401,1.8509 2.5102,2.6144 -0.7244,0.9032 -1.4986,1.954 -2.018,3.0109 z"
     id="path3098"
     sodipodi:nodetypes="cccccc" />
  <rect
     transform="matrix(0.969376,0.084809,-0.084809,0.969376,28.1052,-0.728662)"
     ry="3.77954"
     rx="3.77954"
     y="16.5929"
     x="49.0166"
     height="80.5498"
     width="55.648"
     id="rect1154"
     style="opacity:0.5;fill:#000000;fill-opacity:1;fill-rule:nonzero;stroke:none;stroke-width:0.5;stroke-linecap:round;stroke-linejoin:round;stroke-miterlimit:4;stroke-dasharray:none;stroke-opacity:1;filter:url(#filter1208)" />
  <rect
     style="opacity:1;fill:url(#linearGradient894);fill-opacity:1;fill-rule:nonzero;stroke:#9aa4ac;stroke-width:0.486539;stroke-linecap:round;stroke-linejoin:round;stroke-miterlimit:4;stroke-dasharray:none;stroke-opacity:1"
     id="rect857"
     width="54.1498"
     height="78.3813"
     x="74.5889"
     y="11.5076"
     rx="3.67778"
     ry="3.67778"
     transform="rotate(4.99996)" />
  <path
     inkscape:connector-curvature="0"
     id="K"
     style="font-style:normal;font-variant:normal;font-weight:normal;font-stretch:normal;font-size:7.055659px;line-height:6.614675px;font-family:CardFont;-inkscape-font-specification:CardFont;letter-spacing:0px;word-spacing:0px;fill:#000000;fill-opacity:1;stroke:none;stroke-width:0.42718px;stroke-linecap:butt;stroke-linejoin:miter;stroke-opacity:1"
     d="m 81.4487,31.0964 -2.9051,-0.2539 0.092,-1.0442 0.9309,0.081 -1.1549,-3.5316 -1.0313,1.3278 -0.1726,1.9973 0.7376,0.066 -0.092,1.044 -2.6443,-0.2317 0.092,-1.044 0.8739,0.077 0.6517,-7.4444 -0.8739,-0.077 0.091,-1.0441 2.644,0.2317 -0.092,1.0441 -0.7374,-0.066 -0.3163,3.6199 2.643,-3.4165 -0.8968,-0.077 0.091,-1.0437 2.9056,0.2538 -0.093,1.044 -0.8285,-0.074 -2.152,2.7735 1.535,4.674 0.7944,0.07 z" />
  <path
     sodipodi:nodetypes="cczcccczcc"
     inkscape:connector-curvature="0"
     id="use3439"
     d="m 77.8162,33.3346 c 1.2657,0.1139 1.5681,1.3609 0.3804,2.4749 1.4964,-0.5224 2.2609,0.5209 1.8137,1.6018 -0.4476,1.0813 -1.9986,0.6773 -2.3082,-0.1692 -0.1948,0.566 0.1213,1.2787 0.3054,1.7782 l -1.3639,-0.1176 c 0.2648,-0.4601 0.7028,-1.1068 0.6091,-1.6982 -0.4524,0.7812 -2.0497,0.9095 -2.3025,-0.2317 -0.2539,-1.1421 0.681,-2.0372 2.0646,-1.2624 -0.9768,-1.3034 -0.4626,-2.4789 0.8039,-2.3716"
     style="stroke-width:0.118018" />
  <rect
     transform="matrix(0.939922,0.251851,-0.251851,0.939922,27.9607,-1.50164)"
     style="opacity:0.5;fill:#000000;fill-opacity:1;fill-rule:nonzero;stroke:none;stroke-width:0.5;stroke-linecap:round;stroke-linejoin:round;stroke-miterlimit:4;stroke-dasharray:none;stroke-opacity:1;filter:url(#filter1232)"
     id="rect1068"
     width="55.648"
     height="80.5498"
     x="69.4657"
     y="5.00386"
     rx="3.77954"
     ry="3.77954" />
  <rect
     ry="3.67778"
     rx="3.67778"
     y="-4.36877"
     x="93.2738"
     height="78.3814"
     width="54.1499"
     id="rect863"
     style="opacity:1;fill:url(#linearGradient878);fill-opacity:1;fill-rule:nonzero;stroke:#9aa4ac;stroke-width:0.48654;stroke-linecap:round;stroke-linejoin:round;stroke-miterlimit:4;stroke-dasharray:none;stroke-opacity:1"
     transform="rotate(15)" />
  <path
     inkscape:connector-curvature="0"
     id="A"
     style="font-style:normal;font-variant:normal;font-weight:normal;font-stretch:normal;font-size:7.055659px;line-height:6.614675px;font-family:CardFont;-inkscape-font-specification:CardFont;letter-spacing:0px;word-spacing:0px;fill:#cc0000;fill-opacity:1;stroke:none;stroke-width:0.42718px;stroke-linecap:butt;stroke-linejoin:miter;stroke-opacity:1"
     d="m 97.4558,34.6858 -2.4537,-0.6564 0.298,-1.1118 0.5261,0.147 0.085,-1.0154 -1.8265,-0.4897 -0.4347,0.9212 0.5301,0.1397 -0.2979,1.1118 -2.4537,-0.6569 0.2977,-1.1115 0.8043,0.2135 3.6913,-7.7027 1.3756,0.3694 -0.6437,8.5193 0.8036,0.2169 z m -1.4557,-3.8096 0.3016,-3.9414 -1.7093,3.564 z" />
  <path
     style="fill:#cc0000;fill-opacity:1;stroke-width:0.444326"
     inkscape:connector-curvature="0"
     d="m 103.375,75.3541 c -1.896,-6.062 -6.7552,-13.308 -5.8947,-16.661 0.8596,-3.353 3.5777,-4.9356 6.2407,-4.3652 2.663,0.5712 3.717,4.128 3.654,6.0987 0.93,-1.7388 3.622,-4.2921 6.213,-3.4546 2.591,0.8362 4.18,3.5323 3.223,6.9008 -0.958,3.3679 -8.587,7.0682 -13.436,11.4813 z"
     id="path3143"
     sodipodi:nodetypes="czccczc" />
  <path
     sodipodi:nodetypes="czccczc"
     id="path865"
     d="m 92.4052,41.0859 c -0.4688,-1.4997 -1.671,-3.2925 -1.4583,-4.1218 0.2135,-0.8298 0.8853,-1.2214 1.544,-1.0801 0.6589,0.1397 0.9199,1.0211 0.904,1.5088 0.2317,-0.4302 0.8963,-1.0622 1.5372,-0.8547 0.641,0.2061 1.0343,0.8739 0.7974,1.7072 -0.2354,0.8335 -2.1246,1.7487 -3.3243,2.8406 z"
     inkscape:connector-curvature="0"
     style="fill:#cc0000;fill-opacity:1;stroke-width:0.109931" />
</svg>
