<?xml version="1.0" encoding="UTF-8" standalone="no"?>
<!-- Created with Inkscape (http://www.inkscape.org/) -->

<svg
   xmlns:dc="http://purl.org/dc/elements/1.1/"
   xmlns:cc="http://creativecommons.org/ns#"
   xmlns:rdf="http://www.w3.org/1999/02/22-rdf-syntax-ns#"
   xmlns:svg="http://www.w3.org/2000/svg"
   xmlns="http://www.w3.org/2000/svg"
   xmlns:sodipodi="http://sodipodi.sourceforge.net/DTD/sodipodi-0.dtd"
   xmlns:inkscape="http://www.inkscape.org/namespaces/inkscape"
   width="162.516"
   height="23.2268"
   viewBox="0 0 42.9991 6.14552"
   version="1.1"
   id="svg839"
   inkscape:version="0.92pre1_64bit r15077"
   sodipodi:docname="Font.svg">
  <defs
     id="defs833" />
  <sodipodi:namedview
     id="base"
     pagecolor="#ffffff"
     bordercolor="#666666"
     borderopacity="1.0"
     inkscape:pageopacity="0.0"
     inkscape:pageshadow="2"
     inkscape:zoom="7.87088"
     inkscape:cx="59.1126"
     inkscape:cy="17.4055"
     inkscape:document-units="mm"
     inkscape:current-layer="svg839"
     showgrid="false"
     inkscape:snap-bbox="true"
     inkscape:bbox-paths="true"
     inkscape:bbox-nodes="true"
     inkscape:snap-bbox-edge-midpoints="true"
     inkscape:snap-bbox-midpoints="true"
     inkscape:object-paths="true"
     inkscape:snap-intersection-paths="true"
     inkscape:snap-smooth-nodes="true"
     inkscape:snap-midpoints="true"
     inkscape:snap-page="false"
     inkscape:snap-center="true"
     inkscape:snap-object-midpoints="true"
     inkscape:snap-global="false"
     fit-margin-top="0"
     fit-margin-left="0"
     fit-margin-right="0"
     fit-margin-bottom="0"
     units="px"
     inkscape:window-width="2560"
     inkscape:window-height="1393"
     inkscape:window-x="-4"
     inkscape:window-y="-4"
     inkscape:window-maximized="1" />
  <metadata
     id="metadata836">
    <rdf:RDF>
      <cc:Work
         rdf:about="">
        <dc:format>image/svg+xml</dc:format>
        <dc:type
           rdf:resource="http://purl.org/dc/dcmitype/StillImage" />
        <dc:title></dc:title>
      </cc:Work>
    </rdf:RDF>
  </metadata>
  <path
     style="font-style:normal;font-variant:normal;font-weight:normal;font-stretch:normal;font-size:7.055659px;line-height:6.614675px;font-family:CardFont;-inkscape-font-specification:CardFont;letter-spacing:0px;word-spacing:0px;fill:#000000;fill-opacity:1;stroke:none;stroke-width:0.264586px;stroke-linecap:butt;stroke-linejoin:miter;stroke-opacity:1"
     d="M 0.006937,0.112656 V 0.705394 H 0.620863 V 5.42559 H -2.97775e-4 V 6.01832 H 1.85543 V 5.42559 H 1.20636 V 0.705394 0.112656 H 0.620863 Z"
     id="1"
     inkscape:connector-curvature="0" />
  <path
     inkscape:connector-curvature="0"
     id="2"
     style="font-style:normal;font-variant:normal;font-weight:normal;font-stretch:normal;font-size:7.055659px;line-height:6.614675px;font-family:CardFont;-inkscape-font-specification:CardFont;letter-spacing:0px;word-spacing:0px;fill:#000000;fill-opacity:1;stroke:none;stroke-width:0.264587px;stroke-linecap:butt;stroke-linejoin:miter;stroke-opacity:1"
     d="M 4.29842,5.99024 H 2.11116 C 2.10909,5.57885 2.12085,5.13458 2.19586,4.76961 2.25699,4.49679 2.3252,4.2663 2.40047,4.07815 2.52388,3.729 2.73854,3.42625 2.9367,3.1327 3.16054,2.80631 3.35553,2.50637 3.5576,2.16607 3.66534,1.94726 3.68104,1.71522 3.6987,1.48873 3.6987,1.23472 3.64696,1.02305 3.54347,0.85372 3.43999,0.67968 3.31064,0.59266 3.15541,0.59266 c -0.10819,0 -0.19285,0.03528 -0.254,0.10583 C 2.77022,0.854748 2.7407,1.03987 2.70385,1.22061 2.68514,1.41292 2.70316,1.59018 2.72505,1.77095 L 2.14649,1.8909 C 2.10959,1.73434 2.10842,1.58717 2.10419,1.43228 c 0,-0.26341 0.0306,-0.48449 0.0917,-0.66323 C 2.25702,0.585603 2.33699,0.437433 2.43578,0.32454 2.63958,0.09982 2.84387,0.021685 3.15546,0.00705 3.46705,-0.007585 3.75174,0.137247 3.96686,0.42333 4.18198,0.709413 4.26055,1.12961 4.2844,1.48874 4.28427,1.65547 4.25789,1.81703 4.235,1.96852 4.12092,2.52743 3.72394,3.02104 3.42357,3.45727 3.26157,3.68839 3.09652,3.96125 2.98609,4.19106 2.82357,4.58656 2.73915,5.0106 2.71092,5.39758 H 3.70577 V 4.62851 h 0.59268 z"
     sodipodi:nodetypes="ccccccccsccccccczzccccccccc" />
  <path
     inkscape:connector-curvature="0"
     id="3"
     style="font-style:normal;font-variant:normal;font-weight:normal;font-stretch:normal;font-size:7.055659px;line-height:6.614675px;font-family:CardFont;-inkscape-font-specification:CardFont;letter-spacing:0px;word-spacing:0px;fill:#000000;fill-opacity:1;stroke:none;stroke-width:0.264587px;stroke-linecap:butt;stroke-linejoin:miter;stroke-opacity:1"
     d="m 6.64916,3.97937 c 0,0.33397 -0.0353,0.63266 -0.10583,0.89607 C 6.47746,5.13885 6.38809,5.36228 6.27521,5.54573 6.06979,5.88406 5.7764,6.10485 5.45676,6.10313 4.92866,6.09383 4.66574,5.56442 4.49013,5.14356 4.43366,4.96481 4.38898,4.78607 4.35607,4.60733 L 4.93464,4.50149 C 4.98895,4.93373 5.19841,5.50982 5.45676,5.51751 5.86159,5.53434 6.03233,4.52389 6.05649,3.97937 6.06408,3.62945 5.99036,3.31101 5.88714,2.99864 5.81254,2.79312 5.67795,2.63 5.52025,2.63882 5.36255,2.64764 5.36839,2.72266 5.29447,2.84347 L 4.76529,2.58241 5.67547,0.6915 H 4.98402 V 1.47468 H 4.39134 V 0.10588 H 6.61388 L 5.67547,2.06029 c 0.14582,0.0282 0.27753,0.094 0.39512,0.19756 0.1223,0.10349 0.22578,0.23755 0.31045,0.40218 0.0847,0.16463 0.15052,0.35983 0.19756,0.58562 0.047,0.22107 0.0705,0.46567 0.0705,0.73378 z"
     sodipodi:nodetypes="cccccccccczcccccccccccccc" />
  <path
     inkscape:connector-curvature="0"
     id="4"
     style="font-style:normal;font-variant:normal;font-weight:normal;font-stretch:normal;font-size:7.055659px;line-height:6.614675px;font-family:CardFont;-inkscape-font-specification:CardFont;letter-spacing:0px;word-spacing:0px;fill:#000000;fill-opacity:1;stroke:none;stroke-width:0.264587px;stroke-linecap:butt;stroke-linejoin:miter;stroke-opacity:1"
     d="M 8.90113,6.01846 H 7.63111 V 5.42578 H 8.03329 V 4.55794 H 6.65038 L 8.07562,0.09876 H 8.61891 V 3.97232 H 8.89408 V 4.55794 H 8.61891 V 5.42578 H 8.90113 Z M 8.03329,3.97232 V 2.18018 L 7.45472,3.97232 Z" />
  <path
     inkscape:connector-curvature="0"
     id="5"
     style="font-style:normal;font-variant:normal;font-weight:normal;font-stretch:normal;font-size:7.055659px;line-height:6.614675px;font-family:CardFont;-inkscape-font-specification:CardFont;letter-spacing:0px;word-spacing:0px;fill:#000000;fill-opacity:1;stroke:none;stroke-width:0.264587px;stroke-linecap:butt;stroke-linejoin:miter;stroke-opacity:1"
     d="m 11.2169,3.80298 c 0,0.28223 -0.026,0.5621 -0.078,0.83963 -0.052,0.27752 -0.1273,0.52682 -0.2258,0.7479 -0.099,0.22107 -0.221,0.39982 -0.3669,0.53623 C 10.4004,6.06315 10.2334,6.13135 10.0453,6.13135 9.79599,6.13135 9.57727,6.0067 9.38912,5.7574 9.20123,5.5081 9.06025,5.16002 8.96618,4.71316 L 9.54474,4.59322 c 0.0329,0.16933 0.0729,0.31515 0.11995,0.43745 0.0775,0.24929 0.22412,0.51662 0.38101,0.51507 0.1569,-0.002 0.2822,-0.30418 0.3669,-0.47273 0.061,-0.15052 0.1131,-0.33161 0.1552,-0.54328 0.042,-0.21637 0.063,-0.45862 0.063,-0.72674 0,-0.26341 -0.021,-0.50095 -0.063,-0.71262 -0.042,-0.21167 -0.094,-0.39041 -0.1552,-0.53623 -0.057,-0.15052 -0.1202,-0.26341 -0.1905,-0.33867 -0.066,-0.08 -0.1248,-0.11995 -0.1764,-0.11995 -0.038,0 -0.087,0.0306 -0.14818,0.0917 C 9.83639,2.24835 9.77524,2.34478 9.71408,2.4765 L 9.14962,2.35657 V 0.10582 H 11.0546 V 0.69144 H 9.7423 v 0.88901 c 0.0941,-0.0471 0.19521,-0.0706 0.3034,-0.0706 0.1458,0 0.2893,0.0494 0.4304,0.14817 0.1411,0.0988 0.2658,0.2446 0.3739,0.43745 0.1082,0.19286 0.1952,0.43275 0.2611,0.71968 0.07,0.28223 0.1058,0.61149 0.1058,0.98779 z"
     sodipodi:nodetypes="scccscccczccscccsccccccccssccss" />
  <path
     inkscape:connector-curvature="0"
     id="6"
     style="font-style:normal;font-variant:normal;font-weight:normal;font-stretch:normal;font-size:7.055659px;line-height:6.614675px;font-family:CardFont;-inkscape-font-specification:CardFont;letter-spacing:0px;word-spacing:0px;fill:#000000;fill-opacity:1;stroke:none;stroke-width:0.264587px;stroke-linecap:butt;stroke-linejoin:miter;stroke-opacity:1"
     d="m 13.4261,4.76255 c -0.047,0.25401 -0.1179,0.48214 -0.2116,0.6844 -0.094,0.20226 -0.2117,0.36689 -0.3528,0.4939 -0.1364,0.127 -0.294,0.19364 -0.4728,0.1905 -0.4902,-0.009 -0.7486,-0.55711 -0.8674,-0.95249 -0.066,-0.2493 -0.1176,-0.50566 -0.1552,-0.76907 -0.033,-0.26811 -0.054,-0.52447 -0.064,-0.76907 -0.01,-0.24459 -0.014,-0.4445 -0.014,-0.59973 0,-1.41113 0.1576,-2.3072 0.4727,-2.6882 C 11.9588,0.117597 12.1706,0 12.3964,0 c 0.2164,0 0.4093,0.089373 0.5786,0.26812 0.174,0.17874 0.308,0.42804 0.4021,0.7479 l -0.5644,0.16226 c -0.054,-0.311201 -0.2411,-0.58303 -0.4163,-0.58562 -0.2199,-0.0032 -0.2825,0.338934 -0.3452,0.5221 -0.052,0.19285 -0.094,0.45862 -0.127,0.79729 0.1411,-0.13171 0.2964,-0.19756 0.4657,-0.19756 0.1599,0 0.3081,0.0564 0.4445,0.16933 0.1364,0.10819 0.254,0.26341 0.3528,0.46568 0.099,0.19755 0.174,0.43509 0.2257,0.71262 0.057,0.27752 0.085,0.58326 0.085,0.88196 -4e-4,0.2987 -0.024,0.55976 -0.071,0.81847 z M 12.3899,2.30013 c -0.4883,-0.0157 -0.4764,0.86146 -0.4531,1.781 0.023,0.91953 0.2097,1.46056 0.4681,1.46463 0.2584,0.004 0.532,-0.66944 0.5399,-1.47438 0.01,-0.80494 -0.067,-1.75555 -0.5549,-1.77125 z"
     sodipodi:nodetypes="cccscccscscccsccscccccczzzzz" />
  <path
     inkscape:connector-curvature="0"
     id="7"
     style="font-style:normal;font-variant:normal;font-weight:normal;font-stretch:normal;font-size:7.055659px;line-height:6.614675px;font-family:CardFont;-inkscape-font-specification:CardFont;letter-spacing:0px;word-spacing:0px;fill:#000000;fill-opacity:1;stroke:none;stroke-width:0.264587px;stroke-linecap:butt;stroke-linejoin:miter;stroke-opacity:1"
     d="m 15.8973,0.10582 c -0.2678,0.619584 -0.4672,1.34471 -0.6068,1.89091 -0.1176,0.47509 -0.2376,1.05836 -0.3599,1.74981 -0.1223,0.69145 -0.221,1.47463 -0.2963,2.34953 l -0.5856,-0.0564 c 0.057,-0.68205 0.1296,-1.30765 0.2187,-1.87681 0.089,-0.56915 0.1811,-1.07951 0.2752,-1.53108 0.094,-0.45156 0.1858,-0.83962 0.2751,-1.16418 0.089,-0.32456 0.167,-0.583267 0.2329,-0.77612 h -0.9667 v 0.78318 h -0.5926 v -1.3688 z"
     sodipodi:nodetypes="cccccccccccccc" />
  <path
     inkscape:connector-curvature="0"
     id="8"
     style="font-style:normal;font-variant:normal;font-weight:normal;font-stretch:normal;font-size:7.055659px;line-height:6.614675px;font-family:CardFont;-inkscape-font-specification:CardFont;letter-spacing:0px;word-spacing:0px;fill:#000000;fill-opacity:1;stroke:none;stroke-width:0.264587px;stroke-linecap:butt;stroke-linejoin:miter;stroke-opacity:1"
     d="m 18.1072,4.36038 c 0,0.24459 -0.031,0.47508 -0.092,0.69145 -0.097,0.39572 -0.3149,0.68208 -0.5927,0.9243 -0.1364,0.0941 -0.2846,0.14111 -0.4445,0.14111 -0.1552,0 -0.301,-0.047 -0.4374,-0.14111 -0.3364,-0.23096 -0.48,-0.58539 -0.5998,-0.9243 -0.057,-0.21637 -0.085,-0.44686 -0.085,-0.69145 0,-0.32456 0.047,-0.61619 0.1411,-0.8749 0.099,-0.25871 0.2257,-0.46567 0.381,-0.6209 -0.1223,-0.13641 -0.2211,-0.3128 -0.2964,-0.52917 -0.07,-0.22108 -0.1058,-0.46568 -0.1058,-0.73379 0,-0.22108 0.026,-0.4257 0.078,-0.61385 0.084,-0.351978 0.2857,-0.596895 0.5292,-0.8114 0.1223,-0.07996 0.254,-0.11994 0.3951,-0.11994 0.1458,0 0.2799,0.03998 0.4022,0.11994 0.3001,0.200512 0.4209,0.515042 0.5291,0.8114 0.052,0.18815 0.078,0.39277 0.078,0.61385 0,0.26811 -0.038,0.51271 -0.1129,0.73379 -0.071,0.21637 -0.1669,0.39276 -0.2892,0.52917 0.1552,0.15523 0.2798,0.36219 0.3739,0.6209 0.099,0.25871 0.1482,0.55034 0.1482,0.8749 z M 17.4017,1.60162 c -0.01,-0.30877 -0.153,-0.962589 -0.423,-0.95952 -0.27,0.0031 -0.4118,0.60585 -0.416,0.95952 0,0.35367 0.041,0.95866 0.416,0.95957 0.3746,9.1e-4 0.4326,-0.6508 0.423,-0.95957 z m 0.1128,2.75876 c 0.013,-0.45664 -0.071,-1.17403 -0.5357,-1.17127 -0.4646,0.003 -0.5122,0.70694 -0.5288,1.17127 -0.017,0.46433 0.064,1.14897 0.5288,1.16417 0.4653,0.0152 0.5228,-0.70753 0.5357,-1.16417 z"
     sodipodi:nodetypes="cccsccscccsccsccsccccczzzzzzzzzz" />
  <path
     inkscape:connector-curvature="0"
     id="9"
     style="font-style:normal;font-variant:normal;font-weight:normal;font-stretch:normal;font-size:7.055659px;line-height:6.614675px;font-family:CardFont;-inkscape-font-specification:CardFont;letter-spacing:0px;word-spacing:0px;fill:#000000;fill-opacity:1;stroke:none;stroke-width:0.264587px;stroke-linecap:butt;stroke-linejoin:miter;stroke-opacity:1"
     d="m 20.2087,4.96717 c -0.037,0.16463 -0.084,0.3175 -0.1411,0.45861 -0.057,0.14111 -0.1225,0.25871 -0.1976,0.35279 -0.1881,0.23048 -0.3974,0.34572 -0.6279,0.34572 -0.2117,0 -0.4022,-0.0894 -0.5715,-0.26811 C 18.5013,5.67273 18.3695,5.41403 18.2754,5.08006 l 0.5645,-0.16228 c 0.07,0.27916 0.2324,0.62397 0.4022,0.62089 0.2414,-0.004 0.2951,-0.39205 0.3664,-0.60676 0.061,-0.23049 0.1084,-0.53153 0.1411,-0.90313 -0.1505,0.12701 -0.3128,0.19051 -0.4869,0.19051 -0.1364,0 -0.2728,-0.0447 -0.4092,-0.13406 C 18.7239,3.99586 18.6074,3.86415 18.5039,3.69011 18.4004,3.51137 18.3158,3.29265 18.2499,3.03394 18.1888,2.77053 18.1582,2.46478 18.1582,2.1167 c 0,-0.34337 0.031,-0.64677 0.092,-0.91018 0.066,-0.263413 0.1507,-0.48214 0.254,-0.65618 0.2878,-0.438283 0.5483,-0.529232 0.762,-0.53623 0.4531,-0.01334825 0.7489,0.484007 0.875,0.94552 0.1332,0.53018 0.2036,1.051 0.2262,1.56636 0.035,0.85128 -0.01,1.6443 -0.1587,2.44118 z M 19.2659,0.59973 C 18.871,0.58936 18.6982,1.60364 18.7026,2.1167 c 0,0.51306 0.1819,1.51259 0.5633,1.51697 0.3814,0.004 0.5321,-0.8179 0.5303,-1.47553 0,-0.65763 -0.1354,-1.548038 -0.5303,-1.55841 z"
     sodipodi:nodetypes="cccscccsccscccscccccczzzzz" />
  <path
     inkscape:connector-curvature="0"
     id="10"
     style="font-style:normal;font-variant:normal;font-weight:normal;font-stretch:normal;font-size:7.055659px;line-height:6.614675px;font-family:CardFont;-inkscape-font-specification:CardFont;letter-spacing:0px;word-spacing:0px;fill:#000000;fill-opacity:1;stroke:none;stroke-width:0.264587px;stroke-linecap:butt;stroke-linejoin:miter;stroke-opacity:1"
     d="m 24.545,4.86133 c 0,0.76444 -0.4665,1.26709 -1.2491,1.27002 -0.7826,0.003 -1.2468,-0.54413 -1.2418,-1.27002 V 1.27706 c -0.01,-0.747632 0.4448,-1.26458 1.2421,-1.27002 0.7973,-0.00544 1.2496,0.609983 1.2491,1.27002 z M 21.624,6.00435 H 20.862 V 0.11287 h 0.762 z M 23.783,4.86133 V 1.27706 c 6e-4,-0.313733 -0.1663,-0.495089 -0.4868,-0.4939 -0.3205,0.0012 -0.4803,0.179106 -0.4798,0.4939 v 3.58427 c -0.01,0.29936 0.1685,0.49848 0.4798,0.50095 0.3113,0.002 0.49,-0.19249 0.4868,-0.50095 z"
     sodipodi:nodetypes="czcczccccccccczcczc" />
  <path
     inkscape:connector-curvature="0"
     id="A"
     style="font-style:normal;font-variant:normal;font-weight:normal;font-stretch:normal;font-size:7.055659px;line-height:6.614675px;font-family:CardFont;-inkscape-font-specification:CardFont;letter-spacing:0px;word-spacing:0px;fill:#000000;fill-opacity:1;stroke:none;stroke-width:0.264587px;stroke-linecap:butt;stroke-linejoin:miter;stroke-opacity:1"
     d="M 29.2257,6.03257 H 27.6523 V 5.31995 h 0.3386 l -0.1128,-0.6209 h -1.1713 l -0.1129,0.6209 h 0.3387 V 6.03257 H 25.3592 V 5.31995 h 0.5151 l 0.9736,-5.20002 h 0.882 l 0.9807,5.20002 h 0.5151 z M 27.744,3.98643 27.2924,1.58045 26.8409,3.98643 Z" />
  <path
     inkscape:connector-curvature="0"
     id="J"
     style="font-style:normal;font-variant:normal;font-weight:normal;font-stretch:normal;font-size:7.055659px;line-height:6.614675px;font-family:CardFont;-inkscape-font-specification:CardFont;letter-spacing:0px;word-spacing:0px;fill:#000000;fill-opacity:1;stroke:none;stroke-width:0.264587px;stroke-linecap:butt;stroke-linejoin:miter;stroke-opacity:1"
     d="m 33.7935,0.94544 h -0.6139 v 3.49255 c -0.01,0.90401 -0.4357,1.67919 -1.5875,1.69336 -1.303,0.016 -1.6167,-0.98775 -1.6128,-2.17314 h 0.8114 c -0.01,0.78695 0.115,1.3269 0.8011,1.34056 0.6195,0.0123 0.7831,-0.34898 0.7757,-0.86074 V 0.94548 H 31.7254 V 0.10586 h 2.0674 z"
     sodipodi:nodetypes="cccsccscccccc" />
  <path
     inkscape:connector-curvature="0"
     id="Q"
     style="font-style:normal;font-variant:normal;font-weight:normal;font-stretch:normal;font-size:7.055659px;line-height:6.614675px;font-family:CardFont;-inkscape-font-specification:CardFont;letter-spacing:0px;word-spacing:0px;fill:#000000;fill-opacity:1;stroke:none;stroke-width:0.264587px;stroke-linecap:butt;stroke-linejoin:miter;stroke-opacity:1"
     d="M 38.4036,6.01846 C 37.82,6.01867 37.6295,5.97457 37.3946,5.78566 37.1007,6.02857 36.7643,6.14495 36.4209,6.14552 35.4817,6.14708 34.9247,5.35225 34.9251,4.7485 V 4.22638 h -0.388 V 3.52383 l 0.3885,-0.003 V 1.42541 c 0.01,-0.861359 0.6185,-1.4051 1.4958,-1.40408 0.8773,0.00102 1.4904,0.557902 1.4958,1.40408 v 3.32321 c 0,0.15993 -0.033,0.3175 -0.099,0.47273 0.2792,0.10251 0.3737,0.0847 0.5857,0.0847 z M 37.19,1.42523 c 0,-0.39467 -0.3514,-0.65929 -0.7695,-0.66319 -0.4181,-0.0039 -0.7697,0.2569 -0.7765,0.66319 v 2.09553 c 0.1411,0.0141 0.2728,0.0494 0.3951,0.10583 0.127,0.0565 0.247,0.12467 0.3599,0.20462 0.1129,0.08 0.2187,0.16933 0.3175,0.26811 0.1782,0.16561 0.3183,0.3242 0.4732,0.49392 z M 36.8443,5.27056 C 36.5802,4.90996 36.242,4.59131 35.9509,4.37945 35.8142,4.27786 35.7537,4.26065 35.6448,4.24045 v 0.50801 c 0.011,0.42791 0.3769,0.65355 0.7765,0.65623 0.1458,9.8e-4 0.2869,-0.0447 0.4234,-0.13406 z"
     sodipodi:nodetypes="ccscccccczcscccczcccccccccccscc" />
  <path
     inkscape:connector-curvature="0"
     id="K"
     style="font-style:normal;font-variant:normal;font-weight:normal;font-stretch:normal;font-size:7.055659px;line-height:6.614675px;font-family:CardFont;-inkscape-font-specification:CardFont;letter-spacing:0px;word-spacing:0px;fill:#000000;fill-opacity:1;stroke:none;stroke-width:0.264587px;stroke-linecap:butt;stroke-linejoin:miter;stroke-opacity:1"
     d="M 42.9995,6.03257 H 41.1933 V 5.38345 h 0.5786 l -0.9032,-2.1167 -0.5644,0.8749 v 1.2418 h 0.4586 v 0.64912 h -1.644 V 5.38345 h 0.5433 V 0.75494 H 39.1189 V 0.10582 h 1.644 V 0.75494 H 40.3043 V 3.00569 L 41.7507,0.75494 H 41.1933 V 0.10582 h 1.8062 v 0.64912 h -0.515 l -1.1783,1.82741 1.1995,2.8011 h 0.4938 z" />
</svg>
