<?xml version="1.0" encoding="UTF-8" standalone="no"?>
<!-- Created with Inkscape (http://www.inkscape.org/) -->

<svg
   xmlns:dc="http://purl.org/dc/elements/1.1/"
   xmlns:cc="http://creativecommons.org/ns#"
   xmlns:rdf="http://www.w3.org/1999/02/22-rdf-syntax-ns#"
   xmlns:svg="http://www.w3.org/2000/svg"
   xmlns="http://www.w3.org/2000/svg"
   xmlns:xlink="http://www.w3.org/1999/xlink"
   xmlns:sodipodi="http://sodipodi.sourceforge.net/DTD/sodipodi-0.dtd"
   xmlns:inkscape="http://www.inkscape.org/namespaces/inkscape"
   width="128"
   height="128"
   viewBox="0 0 128 128"
   version="1.1"
   id="svg839"
   inkscape:version="0.92pre1_64bit r15077"
   sodipodi:docname="Icon2.svg"
   inkscape:export-filename="C:\Projects\Cards\Output\Web\www\Icons\Icon-36x36.png"
   inkscape:export-xdpi="27"
   inkscape:export-ydpi="27">
  <defs
     id="defs833">
    <linearGradient
       inkscape:collect="always"
       id="linearGradient914">
      <stop
         style="stop-color:#e1e1e1;stop-opacity:1"
         offset="0"
         id="stop910" />
      <stop
         style="stop-color:#fcfcfc;stop-opacity:1"
         offset="1"
         id="stop912" />
    </linearGradient>
    <linearGradient
       inkscape:collect="always"
       id="linearGradient900">
      <stop
         style="stop-color:#e1e1e1;stop-opacity:1"
         offset="0"
         id="stop896" />
      <stop
         style="stop-color:#fcfcfc;stop-opacity:1"
         offset="1"
         id="stop898" />
    </linearGradient>
    <linearGradient
       inkscape:collect="always"
       id="linearGradient892">
      <stop
         style="stop-color:#e1e1e1;stop-opacity:1"
         offset="0"
         id="stop888" />
      <stop
         style="stop-color:#fcfcfc;stop-opacity:1"
         offset="1"
         id="stop890" />
    </linearGradient>
    <linearGradient
       inkscape:collect="always"
       id="linearGradient876">
      <stop
         style="stop-color:#e1e1e1;stop-opacity:1"
         offset="0"
         id="stop872" />
      <stop
         style="stop-color:#fcfcfc;stop-opacity:1"
         offset="1"
         id="stop874" />
    </linearGradient>
    <linearGradient
       inkscape:collect="always"
       id="linearGradient913">
      <stop
         style="stop-color:#008844;stop-opacity:1"
         offset="0"
         id="stop909" />
      <stop
         style="stop-color:#006633;stop-opacity:1"
         offset="1"
         id="stop911" />
    </linearGradient>
    <radialGradient
       inkscape:collect="always"
       xlink:href="#linearGradient913"
       id="radialGradient915"
       cx="16.4043"
       cy="16.7903"
       fx="16.4043"
       fy="16.7903"
       r="16.9336"
       gradientUnits="userSpaceOnUse"
       gradientTransform="matrix(3.76148,3.84537,-3.85278,3.759,64.9859,-62.7368)" />
    <linearGradient
       inkscape:collect="always"
       xlink:href="#linearGradient876"
       id="linearGradient878"
       x1="25.5369"
       y1="1.44516"
       x2="26.0123"
       y2="22.5059"
       gradientUnits="userSpaceOnUse"
       gradientTransform="matrix(3.77946,0,0,3.77946,0.001455,-4.13542e-4)" />
    <linearGradient
       inkscape:collect="always"
       xlink:href="#linearGradient892"
       id="linearGradient894"
       x1="14.0432"
       y1="4.51666"
       x2="13.7651"
       y2="25.6102"
       gradientUnits="userSpaceOnUse"
       gradientTransform="matrix(3.77946,0,0,3.77946,0.001504,-1.55136e-4)" />
    <linearGradient
       inkscape:collect="always"
       xlink:href="#linearGradient900"
       id="linearGradient902"
       x1="8.14387"
       y1="6.45778"
       x2="8.06064"
       y2="27.5913"
       gradientUnits="userSpaceOnUse"
       gradientTransform="matrix(3.77946,0,0,3.77946,0.001508,1.08876e-4)" />
    <linearGradient
       inkscape:collect="always"
       xlink:href="#linearGradient914"
       id="linearGradient916"
       x1="1.19056"
       y1="7.77007"
       x2="1.51308"
       y2="28.7"
       gradientUnits="userSpaceOnUse"
       gradientTransform="matrix(3.77946,0,0,3.77946,0.001466,3.69126e-4)" />
    <filter
       inkscape:collect="always"
       style="color-interpolation-filters:sRGB"
       id="filter1208"
       x="-0.0709838"
       width="1.14197"
       y="-0.0519599"
       height="1.10392">
      <feGaussianBlur
         inkscape:collect="always"
         stdDeviation="1.82864"
         id="feGaussianBlur1210" />
    </filter>
    <filter
       inkscape:collect="always"
       style="color-interpolation-filters:sRGB"
       id="filter1216"
       x="-0.0709838"
       width="1.14197"
       y="-0.0519599"
       height="1.10392">
      <feGaussianBlur
         inkscape:collect="always"
         stdDeviation="1.82864"
         id="feGaussianBlur1218" />
    </filter>
    <filter
       inkscape:collect="always"
       style="color-interpolation-filters:sRGB"
       id="filter1224"
       x="-0.0672457"
       width="1.13449"
       y="-0.0541638"
       height="1.10833">
      <feGaussianBlur
         inkscape:collect="always"
         stdDeviation="2.04272"
         id="feGaussianBlur1226" />
    </filter>
    <filter
       inkscape:collect="always"
       style="color-interpolation-filters:sRGB"
       id="filter1232"
       x="-0.0672457"
       width="1.13449"
       y="-0.0541638"
       height="1.10833">
      <feGaussianBlur
         inkscape:collect="always"
         stdDeviation="2.04272"
         id="feGaussianBlur1234" />
    </filter>
  </defs>
  <sodipodi:namedview
     id="base"
     pagecolor="#ffffff"
     bordercolor="#666666"
     borderopacity="1.0"
     inkscape:pageopacity="0.0"
     inkscape:pageshadow="2"
     inkscape:zoom="2.78278"
     inkscape:cx="219.443"
     inkscape:cy="-0.34988"
     inkscape:document-units="mm"
     inkscape:current-layer="svg839"
     showgrid="false"
     inkscape:snap-bbox="true"
     inkscape:bbox-paths="true"
     inkscape:bbox-nodes="true"
     inkscape:snap-bbox-edge-midpoints="true"
     inkscape:snap-bbox-midpoints="true"
     inkscape:object-paths="true"
     inkscape:snap-intersection-paths="true"
     inkscape:snap-smooth-nodes="true"
     inkscape:snap-midpoints="true"
     inkscape:snap-page="false"
     inkscape:snap-center="true"
     inkscape:snap-object-midpoints="true"
     inkscape:snap-global="false"
     fit-margin-top="0"
     fit-margin-left="0"
     fit-margin-right="0"
     fit-margin-bottom="0"
     units="px"
     inkscape:window-width="2560"
     inkscape:window-height="1393"
     inkscape:window-x="-4"
     inkscape:window-y="-4"
     inkscape:window-maximized="1" />
  <metadata
     id="metadata836">
    <rdf:RDF>
      <cc:Work
         rdf:about="">
        <dc:format>image/svg+xml</dc:format>
        <dc:type
           rdf:resource="http://purl.org/dc/dcmitype/StillImage" />
        <dc:title></dc:title>
      </cc:Work>
    </rdf:RDF>
  </metadata>
  <rect
     style="opacity:1;fill:url(#radialGradient915);fill-opacity:1;fill-rule:nonzero;stroke:none;stroke-width:1;stroke-linecap:round;stroke-linejoin:round;stroke-miterlimit:4;stroke-dasharray:none;stroke-opacity:1"
     id="rect907"
     width="128"
     height="128"
     x="2.16038e-007"
     y="-1.59094e-005"
     rx="11.3386"
     ry="11.3386" />
  <g
     id="g882"
     transform="matrix(1.07661,0,0,1.07661,-4.94481,-4.95781)">
    <rect
       style="opacity:0.5;fill:#000000;fill-opacity:1;fill-rule:nonzero;stroke:none;stroke-width:0.5;stroke-linecap:round;stroke-linejoin:round;stroke-miterlimit:4;stroke-dasharray:none;stroke-opacity:1;filter:url(#filter1224)"
       id="rect1150"
       width="55.648"
       height="80.5498"
       x="1.06958"
       y="28.6353"
       rx="3.77954"
       ry="3.77954"
       transform="rotate(-15,2.5395,-0.822009)" />
    <rect
       transform="rotate(-15)"
       ry="3.77954"
       rx="3.77954"
       y="28.6353"
       x="1.06958"
       height="80.5498"
       width="55.648"
       id="rect861"
       style="opacity:1;fill:url(#linearGradient916);fill-opacity:1;fill-rule:nonzero;stroke:#9aa4ac;stroke-width:0.5;stroke-linecap:round;stroke-linejoin:round;stroke-miterlimit:4;stroke-dasharray:none;stroke-opacity:1" />
    <path
       sodipodi:nodetypes="cccsccscccccc"
       d="m 18.2128,29.5421 -0.9845,0.2608 1.4997,5.5975 c 0.3704,1.4535 0.038,2.8787 -1.8168,3.3957 -2.0814,0.5855 -3.0153,-0.8889 -3.5179,-2.7901 l 1.3001,-0.3481 c 0.3213,1.2652 0.7544,2.0772 1.8599,1.8044 0.9985,-0.2453 1.1051,-0.8957 0.8734,-1.7126 l -1.4997,-5.5976 -1.0287,0.2759 -0.3591,-1.3458 3.3131,-0.8875 z"
       style="font-style:normal;font-variant:normal;font-weight:normal;font-stretch:normal;font-size:7.055659px;line-height:6.614675px;font-family:CardFont;-inkscape-font-specification:CardFont;letter-spacing:0px;word-spacing:0px;fill:#000000;fill-opacity:1;stroke:none;stroke-width:0.438999px;stroke-linecap:butt;stroke-linejoin:miter;stroke-opacity:1"
       id="J"
       inkscape:connector-curvature="0" />
    <path
       sodipodi:nodetypes="czsccszc"
       id="path3166"
       d="m 18.0295,40.91 c -0.6651,1.8251 -1.5624,3.1127 -1.2774,4.2213 0.2834,1.1089 1.9781,1.0276 2.0881,-0.1059 0,-0.087 0.1399,1.0742 0,1.677 l 1.4101,-0.378 c -0.4342,-0.4433 -0.9006,-1.5133 -0.8507,-1.443 0.658,0.9249 2.1977,0.3032 1.8606,-0.9539 -0.3364,-1.257 -1.7287,-1.7692 -3.2155,-3.0175 z"
       inkscape:connector-curvature="0"
       style="stroke-width:0.121283" />
    <rect
       ry="3.77954"
       rx="3.77954"
       y="24.0411"
       x="26.4446"
       height="80.5498"
       width="55.648"
       id="rect1152"
       style="opacity:0.5;fill:#000000;fill-opacity:1;fill-rule:nonzero;stroke:none;stroke-width:0.5;stroke-linecap:round;stroke-linejoin:round;stroke-miterlimit:4;stroke-dasharray:none;stroke-opacity:1;filter:url(#filter1216)"
       transform="rotate(-5,7.28137,-9.5561)" />
    <rect
       transform="rotate(-5)"
       style="opacity:1;fill:url(#linearGradient902);fill-opacity:1;fill-rule:nonzero;stroke:#9aa4ac;stroke-width:0.5;stroke-linecap:round;stroke-linejoin:round;stroke-miterlimit:4;stroke-dasharray:none;stroke-opacity:1"
       id="rect859"
       width="55.648"
       height="80.5498"
       x="26.4446"
       y="24.0411"
       rx="3.77954"
       ry="3.77954" />
    <path
       sodipodi:nodetypes="ccscccccczcscccczcccccccccccscc"
       d="m 39.4867,33.8454 c -0.9646,0.087 -1.2858,0.038 -1.7012,-0.2381 -0.4509,0.4441 -0.9902,0.6852 -1.5579,0.7355 -1.5518,0.1398 -2.5874,-1.0949 -2.6739,-2.0927 l -0.076,-0.8632 -0.6414,0.057 -0.102,-1.1611 0.6417,-0.06 -0.3023,-3.4635 c -0.1096,-1.4253 0.8193,-2.4117 2.2695,-2.5372 1.4502,-0.1247 2.544,0.7068 2.6755,2.1044 l 0.4804,5.4931 c 0.038,0.2645 0,0.5291 -0.094,0.7955 0.4766,0.1323 0.6296,0.083 0.9804,0.057 z M 36.8165,26.429 c -0.057,-0.6523 -0.6762,-1.039 -1.3678,-0.9849 -0.6917,0.053 -1.2351,0.5363 -1.1875,1.2086 l 0.3023,3.4635 c 0.2344,0 0.4581,0.042 0.6679,0.1172 0.2192,0.076 0.4263,0.1701 0.6247,0.2872 0.1965,0.1134 0.3859,0.2457 0.5635,0.3972 0.3175,0.2457 0.573,0.4899 0.8534,0.748 z m 0,6.4058 C 36.3278,32.2766 35.7227,31.7992 35.211,31.4912 34.9691,31.34 34.867,31.3249 34.6845,31.3022 l 0.076,0.8394 c 0.079,0.7053 0.7177,1.0258 1.3783,0.9725 0.2457,0 0.4668,-0.1209 0.6807,-0.2797 z"
       style="font-style:normal;font-variant:normal;font-weight:normal;font-stretch:normal;font-size:7.055659px;line-height:6.614675px;font-family:CardFont;-inkscape-font-specification:CardFont;letter-spacing:0px;word-spacing:0px;fill:#cc0000;fill-opacity:1;stroke:none;stroke-width:0.438999px;stroke-linecap:butt;stroke-linejoin:miter;stroke-opacity:1"
       id="Q"
       inkscape:connector-curvature="0" />
    <path
       sodipodi:nodetypes="cccccc"
       id="path3098"
       d="m 36.5527,42.1723 c -0.7128,-0.977 -1.6838,-1.9022 -2.5791,-2.6868 0.7453,-0.9282 1.5409,-2.0081 2.0734,-3.0942 0.7147,0.9768 1.6856,1.9022 2.5798,2.6868 -0.7445,0.9282 -1.5401,2.008 -2.0738,3.0942 z"
       inkscape:connector-curvature="0"
       style="fill:#cc0000;fill-opacity:1;stroke-width:0.121283" />
    <rect
       style="opacity:0.5;fill:#000000;fill-opacity:1;fill-rule:nonzero;stroke:none;stroke-width:0.5;stroke-linecap:round;stroke-linejoin:round;stroke-miterlimit:4;stroke-dasharray:none;stroke-opacity:1;filter:url(#filter1208)"
       id="rect1154"
       width="55.648"
       height="80.5498"
       x="49.0166"
       y="16.5929"
       rx="3.77954"
       ry="3.77954"
       transform="rotate(5,-17.7538,11.5185)" />
    <rect
       transform="rotate(5)"
       ry="3.77954"
       rx="3.77954"
       y="16.5929"
       x="49.0166"
       height="80.5498"
       width="55.648"
       id="rect857"
       style="opacity:1;fill:url(#linearGradient894);fill-opacity:1;fill-rule:nonzero;stroke:#9aa4ac;stroke-width:0.5;stroke-linecap:round;stroke-linejoin:round;stroke-miterlimit:4;stroke-dasharray:none;stroke-opacity:1" />
    <path
       d="m 55.7557,34.2967 -2.9854,-0.2608 0.095,-1.073 0.9566,0.083 -1.1868,-3.6291 -1.0597,1.3644 -0.1776,2.0526 0.7581,0.068 -0.095,1.073 -2.7174,-0.2382 0.095,-1.0729 0.898,0.079 0.6697,-7.6504 -0.898,-0.079 0.094,-1.073 2.717,0.2381 -0.094,1.073 -0.7578,-0.068 -0.3251,3.7201 2.716,-3.5111 -0.9215,-0.079 0.094,-1.0726 2.9858,0.2608 -0.095,1.0729 -0.8515,-0.076 -2.2117,2.8501 1.5775,4.8033 0.8164,0.072 z"
       style="font-style:normal;font-variant:normal;font-weight:normal;font-stretch:normal;font-size:7.055659px;line-height:6.614675px;font-family:CardFont;-inkscape-font-specification:CardFont;letter-spacing:0px;word-spacing:0px;fill:#000000;fill-opacity:1;stroke:none;stroke-width:0.438999px;stroke-linecap:butt;stroke-linejoin:miter;stroke-opacity:1"
       id="K"
       inkscape:connector-curvature="0" />
    <path
       style="stroke-width:0.121283"
       d="m 52.0228,36.5969 c 1.3008,0.1171 1.6115,1.3987 0.3908,2.5435 1.5378,-0.537 2.3236,0.5352 1.864,1.646 -0.46,1.1112 -2.0538,0.6962 -2.372,-0.1739 -0.2003,0.5817 0.1247,1.3142 0.3137,1.8274 L 50.8179,42.319 c 0.2721,-0.4728 0.7222,-1.1373 0.6258,-1.745 -0.4648,0.8027 -2.1063,0.9347 -2.3663,-0.2381 -0.2608,-1.1739 0.7,-2.0935 2.1218,-1.2975 -1.0038,-1.3394 -0.4754,-2.5474 0.8262,-2.437"
       id="use3439"
       inkscape:connector-curvature="0"
       sodipodi:nodetypes="cczcccczcc" />
    <rect
       ry="3.77954"
       rx="3.77954"
       y="5.00386"
       x="69.4657"
       height="80.5498"
       width="55.648"
       id="rect1068"
       style="opacity:0.5;fill:#000000;fill-opacity:1;fill-rule:nonzero;stroke:none;stroke-width:0.5;stroke-linecap:round;stroke-linejoin:round;stroke-miterlimit:4;stroke-dasharray:none;stroke-opacity:1;filter:url(#filter1232)"
       transform="rotate(15,-2.63239,3.39138)" />
    <rect
       transform="rotate(15)"
       style="opacity:1;fill:url(#linearGradient878);fill-opacity:1;fill-rule:nonzero;stroke:#9aa4ac;stroke-width:0.5;stroke-linecap:round;stroke-linejoin:round;stroke-miterlimit:4;stroke-dasharray:none;stroke-opacity:1"
       id="rect863"
       width="55.648"
       height="80.5498"
       x="69.4657"
       y="5.00386"
       rx="3.77954"
       ry="3.77954" />
    <path
       d="m 72.2058,37.9854 -2.5216,-0.6745 0.3061,-1.1425 0.5408,0.1511 0.087,-1.0435 -1.8769,-0.5034 -0.4467,0.9468 0.5446,0.1436 -0.3062,1.1425 -2.5216,-0.675 0.3061,-1.1422 0.8266,0.2192 3.7934,-7.9157 1.4136,0.3798 -0.6614,8.7548 0.8258,0.223 z m -1.4959,-3.915 0.3099,-4.0502 -1.7567,3.6624 z"
       style="font-style:normal;font-variant:normal;font-weight:normal;font-stretch:normal;font-size:7.055659px;line-height:6.614675px;font-family:CardFont;-inkscape-font-specification:CardFont;letter-spacing:0px;word-spacing:0px;fill:#cc0000;fill-opacity:1;stroke:none;stroke-width:0.438999px;stroke-linecap:butt;stroke-linejoin:miter;stroke-opacity:1"
       id="A"
       inkscape:connector-curvature="0" />
    <path
       sodipodi:nodetypes="czccczc"
       id="path3143"
       d="M 78.2889,79.7791 C 76.3402,73.5494 71.3468,66.1027 72.2308,62.657 c 0.8836,-3.4457 3.6774,-5.072 6.4137,-4.4858 2.736,0.5869 3.8199,4.242 3.7549,6.2674 0.9558,-1.7869 3.7224,-4.411 6.385,-3.5504 2.663,0.8595 4.2954,3.6302 3.3116,7.0918 -0.9838,3.4612 -8.8239,7.2637 -13.8071,11.7991 z"
       inkscape:connector-curvature="0"
       style="fill:#cc0000;fill-opacity:1;stroke-width:0.456619" />
    <path
       style="fill:#cc0000;fill-opacity:1;stroke-width:0.112972"
       inkscape:connector-curvature="0"
       d="m 67.0155,44.5628 c -0.4819,-1.5412 -1.7174,-3.3837 -1.4986,-4.236 0.2192,-0.8526 0.9098,-1.2551 1.5867,-1.11 0.6769,0.1436 0.9452,1.0495 0.9289,1.5507 0.2382,-0.4422 0.9211,-1.0915 1.5799,-0.8783 0.6587,0.2116 1.0627,0.898 0.8193,1.7544 -0.2418,0.8564 -2.1833,1.7971 -3.4162,2.9192 z"
       id="path865"
       sodipodi:nodetypes="czccczc" />
  </g>
</svg>
